<svg width="125" height="36" viewBox="0 0 125 36" fill="none" xmlns="http://www.w3.org/2000/svg">
<g clip-path="url(#clip0_345_4520)">
<path d="M43.0012 31.9181C42.6637 31.7662 42.4842 31.8168 42.2832 32.1932C42.075 32.5768 41.7016 32.8808 41.357 33.163C41.1703 33.315 41.0985 33.4163 41.1775 33.6624C41.4216 34.4079 41.637 35.1606 41.8811 35.964C41.7088 35.9857 41.5867 36.0002 41.4719 36.0074C41.2349 35.233 41.0052 34.4875 40.7754 33.742C40.718 33.5611 40.6462 33.467 40.4308 33.4598C38.8369 33.4308 38.0758 32.736 37.846 31.151C37.8317 31.0496 37.6594 30.9194 37.5445 30.9049C35.9578 30.7022 34.3638 30.4851 32.7699 30.3331C27.5645 29.8337 22.3376 29.5804 17.1107 29.6021C14.3249 29.6166 11.5392 29.7179 8.75338 29.7686C8.48054 29.7758 8.39438 29.8699 8.34413 30.1377C8.09283 31.5056 6.82918 32.3669 5.49373 32.0557C5.23526 31.9978 5.17064 32.0629 5.09884 32.2945C4.85473 33.0545 4.59625 33.7999 4.3306 34.5526C4.28034 34.6902 4.2229 34.8277 4.12239 34.929C4.05777 34.9941 3.92135 34.9869 3.82083 35.0086C3.80647 34.9218 3.75621 34.8132 3.78493 34.7408C4.09367 33.8578 4.41676 32.9748 4.73985 32.0919C4.81883 31.8747 4.76139 31.7517 4.57472 31.6142C4.17982 31.3247 3.89981 30.9266 3.77057 30.4489C3.70596 30.2101 3.59826 30.1522 3.36132 30.1811C2.37769 30.3114 1.38687 30.42 0.403234 30.5358C0.166299 30.5647 -0.0490956 30.5937 0.0155229 30.1739C0.625808 30.0943 1.26481 30.0074 1.89664 29.9278C2.38487 29.8699 2.8731 29.8048 3.36132 29.7686C3.56236 29.7541 3.64134 29.689 3.67006 29.4718C3.83519 28.321 4.52446 27.5973 5.65169 27.3874C5.91016 27.3367 5.93888 27.1847 5.97478 26.9893C6.7502 22.929 7.53998 18.8687 8.30823 14.8084C8.48772 13.8458 8.63132 12.8832 8.80363 11.9206C8.85389 11.6455 8.77492 11.5587 8.50926 11.4791C7.63332 11.2185 7.04458 10.6323 6.82918 9.72032C6.77174 9.47424 6.65687 9.40186 6.42711 9.37291C5.27116 9.20645 4.11521 9.01827 2.95207 8.83733C2.85874 8.82285 2.77258 8.77943 2.66488 8.74324C2.6936 8.62744 2.72232 8.52611 2.75104 8.39583C3.28953 8.5044 3.81365 8.62744 4.33778 8.70705C5.01986 8.81561 5.71631 8.88075 6.39839 8.97484C6.64251 9.01103 6.7502 8.93865 6.80764 8.67086C7.05894 7.49836 8.04257 6.74565 9.23443 6.79631C9.4929 6.81079 9.6006 6.74565 9.62214 6.47786C9.69393 5.79752 9.77291 5.10994 9.87343 4.42961C9.88779 4.32828 9.99549 4.24143 10.0601 4.15458C10.1247 4.26314 10.2611 4.37171 10.254 4.47303C10.1893 5.1968 10.1104 5.91332 10.0098 6.62985C9.97395 6.86145 10.0386 6.97002 10.2396 7.08582C10.8571 7.43323 11.2807 7.9471 11.4099 8.64915C11.4745 8.98208 11.6468 9.01827 11.9125 8.98208C14.3824 8.67086 16.8594 8.42478 19.3149 8.04119C22.8402 7.49113 26.3009 6.6009 29.7185 5.57315C30.0129 5.4863 30.1493 5.37774 30.178 5.02309C30.2498 4.05325 30.7452 3.33672 31.6642 2.99655C32.0232 2.86628 32.0878 2.69981 32.0376 2.33793C31.937 1.59245 31.9011 0.832501 31.8365 0.043599C32.0017 0.0291237 32.1094 0.0218861 32.2386 0.0146484C32.3104 0.825264 32.3966 1.59969 32.4468 2.38136C32.4684 2.69257 32.5689 2.81561 32.8848 2.8518C33.4664 2.91694 33.9474 3.19921 34.3279 3.65518C34.45 3.80717 34.5577 3.86507 34.7515 3.77822C35.6921 3.33672 36.6686 2.96037 37.4583 2.2366C37.5517 2.14975 37.7312 2.15699 37.8676 2.1208C37.8891 2.15699 37.9178 2.18594 37.9394 2.22213C37.8102 2.38136 37.7168 2.58401 37.5517 2.68534C36.8696 3.10512 36.1731 3.50319 35.4839 3.90126C35.4336 3.93021 35.3762 3.95192 35.3187 3.97364C34.7659 4.21972 34.7659 4.21972 34.8592 4.82768C35.0244 5.84818 34.5361 6.85422 33.6171 7.29571C33.3371 7.43323 33.294 7.57798 33.3658 7.85301C34.1484 10.8277 34.8377 13.8241 35.7065 16.7698C36.8696 20.6853 38.1691 24.5575 39.4041 28.4513C39.483 28.6974 39.5836 28.7843 39.8636 28.7553C41.3785 28.5961 42.5201 29.5949 42.5488 31.1075C42.556 31.4549 42.7858 31.4405 42.994 31.4984C43.0012 31.6286 43.0012 31.7734 43.0012 31.9181ZM37.8101 30.4996C37.846 30.4561 37.9178 30.3693 37.9896 30.2752C38.2697 29.9061 38.5066 29.4935 38.8369 29.1823C39.0666 28.9652 39.1384 28.8349 39.0379 28.5309C38.0255 25.4767 36.9701 22.4368 36.0439 19.3536C34.8951 15.5611 33.7966 11.7469 32.9781 7.86025C32.9279 7.6214 32.8345 7.55627 32.5976 7.55627C31.5781 7.55627 30.8242 7.10029 30.4006 6.1594C30.2785 5.89161 30.1708 5.84095 29.8908 5.92056C23.9818 7.70826 17.9723 8.9676 11.8048 9.37291C11.575 9.38739 11.4817 9.467 11.4243 9.69861C11.2017 10.5888 10.6632 11.2185 9.78009 11.4356C9.33494 11.5442 9.23442 11.7541 9.16263 12.1522C8.76056 14.5406 8.35849 16.929 7.91334 19.3102C7.43229 21.8723 6.90098 24.42 6.38403 26.9676C6.32659 27.2354 6.37685 27.344 6.65687 27.4236C7.46101 27.6479 8.02821 28.1691 8.25797 28.9869C8.35131 29.3271 8.50926 29.3633 8.81081 29.356C11.0007 29.2836 13.1905 29.1534 15.3732 29.1751C19.1139 29.2113 22.8617 29.2836 26.6024 29.4574C29.3954 29.5876 32.1812 29.8916 34.9741 30.1377C35.8931 30.239 36.805 30.3765 37.8101 30.4996Z" fill="black"/>
<path d="M29.3368 11.0662C29.3368 12.3039 29.3368 13.5053 29.3368 14.7502C29.1932 14.7502 29.0496 14.7502 28.9132 14.7502C25.7756 14.7502 22.6452 14.7647 19.5076 14.7285C18.524 14.7212 18.0214 15.2279 17.9998 16.1977C17.9711 17.8624 17.9639 19.527 17.9998 21.1917C18.0214 22.0385 18.3517 22.6682 19.5148 22.6609C22.6524 22.6464 25.7828 22.6464 28.9204 22.6464C29.0496 22.6464 29.1788 22.6464 29.3296 22.6464C29.3296 23.8768 29.3296 25.0783 29.3296 26.3232C29.186 26.3232 29.0496 26.3232 28.906 26.3232C25.7325 26.3159 22.5662 26.3304 19.3927 26.3015C18.1793 26.287 17.0808 25.8961 16.1331 25.0928C14.9915 24.1229 14.4386 22.8998 14.4386 21.3943C14.4458 19.5849 14.4243 17.7755 14.4386 15.9661C14.4602 13.6284 16.1044 11.4281 18.603 11.1386C18.8973 11.1024 19.1917 11.0662 19.4861 11.0662C22.6237 11.059 25.7541 11.059 28.8916 11.0518C29.0352 11.0662 29.1788 11.0662 29.3368 11.0662Z" fill="black"/>
</g>
<path d="M56.2784 16.4375H53.7898C53.7443 16.1155 53.6515 15.8295 53.5114 15.5795C53.3712 15.3258 53.1913 15.1098 52.9716 14.9318C52.7519 14.7538 52.4981 14.6174 52.2102 14.5227C51.9261 14.428 51.6174 14.3807 51.2841 14.3807C50.6818 14.3807 50.1572 14.5303 49.7102 14.8295C49.2633 15.125 48.9167 15.5568 48.6705 16.125C48.4242 16.6894 48.3011 17.375 48.3011 18.1818C48.3011 19.0114 48.4242 19.7083 48.6705 20.2727C48.9205 20.8371 49.2689 21.2633 49.7159 21.5511C50.1629 21.839 50.6799 21.983 51.267 21.983C51.5966 21.983 51.9015 21.9394 52.1818 21.8523C52.4659 21.7652 52.7178 21.6383 52.9375 21.4716C53.1572 21.3011 53.339 21.0947 53.483 20.8523C53.6307 20.6098 53.733 20.3333 53.7898 20.0227L56.2784 20.0341C56.214 20.5682 56.053 21.0833 55.7955 21.5795C55.5417 22.072 55.1989 22.5133 54.767 22.9034C54.339 23.2898 53.8277 23.5966 53.233 23.8239C52.642 24.0473 51.9735 24.1591 51.2273 24.1591C50.1894 24.1591 49.2614 23.9242 48.4432 23.4545C47.6288 22.9848 46.9848 22.3049 46.5114 21.4148C46.0417 20.5246 45.8068 19.447 45.8068 18.1818C45.8068 16.9129 46.0455 15.8333 46.5227 14.9432C47 14.053 47.6477 13.375 48.4659 12.9091C49.2841 12.4394 50.2045 12.2045 51.2273 12.2045C51.9015 12.2045 52.5265 12.2992 53.1023 12.4886C53.6818 12.678 54.1951 12.9545 54.642 13.3182C55.089 13.678 55.4527 14.1193 55.733 14.642C56.017 15.1648 56.1989 15.7633 56.2784 16.4375ZM58.0426 24V12.3636H62.6335C63.5123 12.3636 64.2623 12.5208 64.8835 12.8352C65.5085 13.1458 65.9839 13.5871 66.3097 14.1591C66.6392 14.7273 66.804 15.3958 66.804 16.1648C66.804 16.9375 66.6373 17.6023 66.304 18.1591C65.9706 18.7121 65.4877 19.1364 64.8551 19.4318C64.2263 19.7273 63.465 19.875 62.571 19.875H59.4972V17.8977H62.1733C62.643 17.8977 63.0331 17.8333 63.3438 17.7045C63.6544 17.5758 63.8854 17.3826 64.0369 17.125C64.1922 16.8674 64.2699 16.5473 64.2699 16.1648C64.2699 15.7784 64.1922 15.4527 64.0369 15.1875C63.8854 14.9223 63.6525 14.7216 63.3381 14.5852C63.0275 14.4451 62.6354 14.375 62.1619 14.375H60.5028V24H58.0426ZM64.3267 18.7045L67.2188 24H64.5028L61.6733 18.7045H64.3267ZM68.5426 24V12.3636H76.3835V14.392H71.0028V17.1648H75.9801V19.1932H71.0028V21.9716H76.4062V24H68.5426ZM80.3452 24H77.7088L81.7259 12.3636H84.8963L88.9077 24H86.2713L83.3565 15.0227H83.2656L80.3452 24ZM80.1804 19.4261H86.4077V21.3466H80.1804V19.4261ZM88.4432 14.392V12.3636H98V14.392H94.4375V24H92.0057V14.392H88.4432ZM102.034 12.3636V24H99.5739V12.3636H102.034ZM106.161 12.3636L108.973 21.2045H109.081L111.899 12.3636H114.626L110.615 24H107.445L103.428 12.3636H106.161ZM116.027 24V12.3636H123.868V14.392H118.487V17.1648H123.464V19.1932H118.487V21.9716H123.891V24H116.027Z" fill="black"/>
<defs>
<clipPath id="clip0_345_4520">
<rect width="43" height="36" fill="white"/>
</clipPath>
</defs>
</svg>
